<?xml version="1.0" encoding="UTF-8" standalone="no"?>
<svg
   xmlns:dc="http://purl.org/dc/elements/1.1/"
   xmlns:cc="http://creativecommons.org/ns#"
   xmlns:rdf="http://www.w3.org/1999/02/22-rdf-syntax-ns#"
   xmlns:svg="http://www.w3.org/2000/svg"
   xmlns="http://www.w3.org/2000/svg"
   xmlns:sodipodi="http://sodipodi.sourceforge.net/DTD/sodipodi-0.dtd"
   xmlns:inkscape="http://www.inkscape.org/namespaces/inkscape"
   version="1.1"
   id="svg2"
   xml:space="preserve"
   width="377.94666"
   height="377.94666"
   viewBox="0 0 377.94666 377.94666"
   sodipodi:docname="pp_logo.svg"
   inkscape:version="1.0.2-2 (e86c870879, 2021-01-15)"><metadata
     id="metadata8"><rdf:RDF><cc:Work
         rdf:about=""><dc:format>image/svg+xml</dc:format><dc:type
           rdf:resource="http://purl.org/dc/dcmitype/StillImage" /><dc:title></dc:title></cc:Work></rdf:RDF></metadata><defs
     id="defs6"><clipPath
       clipPathUnits="userSpaceOnUse"
       id="clipPath22"><path
         d="M 0,283.46 H 283.46 V 0 H 0 Z"
         id="path20" /></clipPath></defs><sodipodi:namedview
     pagecolor="#ffffff"
     bordercolor="#666666"
     borderopacity="1"
     objecttolerance="10"
     gridtolerance="10"
     guidetolerance="10"
     inkscape:pageopacity="0"
     inkscape:pageshadow="2"
     inkscape:window-width="1920"
     inkscape:window-height="1014"
     id="namedview4"
     showgrid="false"
     inkscape:zoom="1.1271432"
     inkscape:cx="11.81168"
     inkscape:cy="200.98575"
     inkscape:window-x="-8"
     inkscape:window-y="-8"
     inkscape:window-maximized="1"
     inkscape:current-layer="g10" /><g
     id="g10"
     inkscape:groupmode="layer"
     inkscape:label="PP_znak_konturowy_BLACK"
     transform="matrix(1.3333333,0,0,-1.3333333,0,377.94667)"><g
       id="g12"
       transform="translate(248.3457,179.3628)"
       style="fill:#ffffff"><path
         d="m 0,0 2.004,0.842 -0.474,1.129 10.998,8.464 -1.386,3.314 -13.755,-1.926 -0.457,1.09 -2.004,-0.842 1.178,-2.8 4.986,0.831 1.66,-3.953 -4.064,-3.015 z m 4.473,7.41 -1.266,3.004 6.917,1.111 z"
         style="fill:#ffffff;fill-opacity:1;fill-rule:nonzero;stroke:none"
         id="path14" /></g><g
       id="g16"
       style="fill:#ffffff"><g
         id="g18"
         clip-path="url(#clipPath22)"
         style="fill:#ffffff"><g
           id="g24"
           transform="translate(242.4541,193.0879)"
           style="fill:#ffffff"><path
             d="M 0,0 1.884,1.08 1.227,2.23 4.497,4.108 C 6.021,4.981 6.429,6.45 5.62,7.869 L 4.838,9.224 10.341,8.899 11.246,7.324 13.146,8.417 11.61,11.09 3.463,11.216 9.535,14.703 7.64,18.007 5.739,16.919 6.396,15.769 -3.339,10.173 -4,11.32 l -1.884,-1.08 1.9,-3.307 5.86,3.365 1.611,-2.81 C 3.823,6.907 3.599,6.464 2.861,6.039 L -1.9,3.304 Z"
             style="fill:#ffffff;fill-opacity:1;fill-rule:nonzero;stroke:none"
             id="path26" /></g><g
           id="g28"
           transform="translate(237.1797,207.3437)"
           style="fill:#ffffff"><path
             d="M 0,0 2.737,2.004 C 4.16,3.044 4.4,4.519 3.431,5.839 l -1.896,2.6 C 1.139,8.982 1.323,9.462 2.004,9.959 l 1.467,1.073 c 0.698,0.51 1.178,0.523 1.58,-0.024 L 6.95,8.413 5.343,7.234 6.79,5.258 10.164,7.729 6.385,12.894 c -0.966,1.322 -2.473,1.543 -3.888,0.509 l -2.56,-1.875 C -1.482,10.49 -1.731,8.989 -0.766,7.665 L 1.127,5.082 C 1.523,4.54 1.351,4.072 0.649,3.561 L -0.962,2.381 C -1.647,1.882 -2.16,1.848 -2.557,2.389 l -2.076,2.838 1.947,1.42 -1.506,2.06 L -7.892,6 -3.863,0.503 C -2.901,-0.826 -1.402,-1.024 0,0"
             style="fill:#ffffff;fill-opacity:1;fill-rule:nonzero;stroke:none"
             id="path30" /></g><g
           id="g32"
           transform="translate(239.7324,231.5576)"
           style="fill:#ffffff"><path
             d="m 0,0 -1.703,1.76 -3.41,-1.042 1.358,-1.409 z m -2.111,-7.314 1.579,1.524 -2.526,2.613 -6.612,-6.388 c -0.485,-0.465 -1.011,-1.058 -1.567,-1.785 l 4.212,12.28 -2.725,2.83 -1.58,-1.526 0.922,-0.949 -8.08,-7.804 -0.922,0.954 -1.563,-1.509 2.53,-2.615 6.6,6.378 c 0.482,0.465 1.023,1.069 1.595,1.814 l -4.067,-12.469 1.646,-1.703 9.64,9.309 z"
             style="fill:#ffffff;fill-opacity:1;fill-rule:nonzero;stroke:none"
             id="path34" /></g><g
           id="g36"
           transform="translate(218.2187,234.0513)"
           style="fill:#ffffff"><path
             d="m 0,0 -2.521,2.06 5.587,4.219 z m -0.478,-8.645 1.373,1.684 -0.947,0.776 5.755,12.631 -2.781,2.275 -11.246,-8.144 -0.922,0.747 -1.37,-1.682 2.356,-1.925 4.012,3.074 3.322,-2.713 -2.18,-4.57 z"
             style="fill:#ffffff;fill-opacity:1;fill-rule:nonzero;stroke:none"
             id="path38" /></g><g
           id="g40"
           transform="translate(214.1426,245.4995)"
           style="fill:#ffffff"><path
             d="m 0,0 1.146,1.87 -3.101,1.895 -4.794,-7.848 c -0.353,-0.57 -0.713,-1.276 -1.066,-2.121 l 0.986,12.947 -3.351,2.051 -1.141,-1.875 1.13,-0.687 -5.856,-9.585 -1.131,0.691 -1.134,-1.853 3.107,-1.896 4.785,7.832 c 0.349,0.572 0.718,1.296 1.086,2.16 l -0.802,-13.09 2.025,-1.237 6.981,11.435 z"
             style="fill:#ffffff;fill-opacity:1;fill-rule:nonzero;stroke:none"
             id="path42" /></g><g
           id="g44"
           transform="translate(193.7988,242.0903)"
           style="fill:#ffffff"><path
             d="m 0,0 2.032,4.409 -2.204,1.014 -1.127,-2.435 -4.608,2.122 11.346,7.357 0.837,1.81 -9.258,4.266 -2.016,-4.376 2.225,-1.024 1.098,2.382 4.376,-2.014 -11.366,-7.303 -0.842,-1.83 z"
             style="fill:#ffffff;fill-opacity:1;fill-rule:nonzero;stroke:none"
             id="path46" /></g><g
           id="g48"
           transform="translate(182.9414,250.0723)"
           style="fill:#ffffff"><path
             d="M 0,0 3.194,9.397 C 3.76,11.06 3.099,12.433 1.544,12.96 l -4.189,1.424 c -1.55,0.528 -2.914,-0.16 -3.474,-1.823 L -9.31,3.162 c -0.561,-1.643 0.096,-3.018 1.652,-3.543 l 4.183,-1.425 C -1.915,-2.333 -0.557,-1.649 0,0 M -2.176,1.405 C -2.449,0.601 -2.829,0.272 -3.462,0.487 l -2.807,0.956 c -0.636,0.21 -0.756,0.713 -0.484,1.519 l 2.794,8.22 c 0.276,0.819 0.669,1.107 1.303,0.89 L 0.148,11.118 C 0.782,10.906 0.902,10.445 0.622,9.625 Z"
             style="fill:#ffffff;fill-opacity:1;fill-rule:nonzero;stroke:none"
             id="path50" /></g><g
           id="g52"
           transform="translate(172.7139,260.98)"
           style="fill:#ffffff"><path
             d="m 0,0 0.532,2.627 c 0.345,1.721 -0.46,2.994 -2.066,3.319 l -7.608,1.543 -0.437,-2.146 1.299,-0.267 -2.233,-11.004 -1.299,0.265 -0.432,-2.131 5.17,-1.048 0.433,2.131 -1.435,0.289 0.93,4.589 3.487,-0.71 C -1.823,-2.914 -0.405,-1.97 0,0 m -2.417,0.611 c -0.168,-0.831 -0.525,-1.182 -1.178,-1.05 l -3.142,0.637 0.893,4.385 3.138,-0.635 c 0.657,-0.136 0.851,-0.579 0.678,-1.425 z"
             style="fill:#ffffff;fill-opacity:1;fill-rule:nonzero;stroke:none"
             id="path54" /></g><g
           id="g56"
           transform="translate(150.1055,254.5532)"
           style="fill:#ffffff"><path
             d="m 0,0 0.032,2.172 -1.226,0.014 -3.361,13.469 -3.594,0.044 -3.732,-13.37 -1.184,0.016 -0.026,-2.173 3.039,-0.04 1.231,4.903 4.284,-0.057 1.141,-4.935 z m -5.003,7.058 -3.26,0.042 1.75,6.786 z"
             style="fill:#ffffff;fill-opacity:1;fill-rule:nonzero;stroke:none"
             id="path58" /></g><g
           id="g60"
           transform="translate(135.4893,254.6694)"
           style="fill:#ffffff"><path
             d="m 0,0 -0.238,2.16 -1.316,-0.146 -0.415,3.75 c -0.189,1.747 -1.37,2.711 -3.002,2.53 l -1.548,-0.17 2.498,4.916 1.808,0.198 -0.243,2.179 -3.062,-0.337 -3.374,-7.415 -0.768,6.96 -3.788,-0.418 0.24,-2.18 1.316,0.147 1.227,-11.162 -1.315,-0.148 0.237,-2.157 3.791,0.415 -0.739,6.715 3.217,0.357 c 0.67,0.073 0.989,-0.31 1.082,-1.153 l 0.6,-5.462 z"
             style="fill:#ffffff;fill-opacity:1;fill-rule:nonzero;stroke:none"
             id="path62" /></g><g
           id="g64"
           transform="translate(121.7695,252.9399)"
           style="fill:#ffffff"><path
             d="m 0,0 -0.423,2.133 -1.318,-0.263 -2.2,11.012 1.32,0.263 -0.429,2.151 -5.054,-1.009 0.427,-2.151 1.297,0.259 2.198,-11.01 -1.297,-0.262 0.425,-2.129 z"
             style="fill:#ffffff;fill-opacity:1;fill-rule:nonzero;stroke:none"
             id="path66" /></g><g
           id="g68"
           transform="translate(110.9268,264.4028)"
           style="fill:#ffffff"><path
             d="m 0,0 -0.644,2.094 -3.474,-1.066 2.706,-8.791 c 0.195,-0.642 0.488,-1.379 0.884,-2.205 l -9.044,9.317 -3.758,-1.157 0.645,-2.094 1.265,0.389 3.302,-10.732 -1.265,-0.388 0.636,-2.078 3.477,1.069 -2.699,8.773 c -0.199,0.642 -0.492,1.4 -0.898,2.246 l 9.278,-9.273 2.263,0.697 -3.94,12.81 z"
             style="fill:#ffffff;fill-opacity:1;fill-rule:nonzero;stroke:none"
             id="path70" /></g><g
           id="g72"
           transform="translate(100.084,246.8315)"
           style="fill:#ffffff"><path
             d="m 0,0 -0.92,1.968 -1.2,-0.559 -4.752,10.193 1.2,0.558 -0.925,1.988 -3.458,-1.61 2.884,-6.184 -4.205,-1.963 -2.886,6.185 -3.458,-1.61 0.931,-1.987 1.198,0.558 4.755,-10.194 -1.2,-0.559 0.919,-1.969 3.452,1.611 -2.878,6.173 4.206,1.963 2.88,-6.174 z"
             style="fill:#ffffff;fill-opacity:1;fill-rule:nonzero;stroke:none"
             id="path74" /></g><g
           id="g76"
           transform="translate(86.7861,240.4834)"
           style="fill:#ffffff"><path
             d="M 0,0 -2.552,4.226 -4.429,3.094 -3.002,0.729 -6.299,-1.263 c -0.573,-0.346 -1.034,-0.116 -1.474,0.611 l -4.492,7.433 c -0.444,0.738 -0.412,1.221 0.162,1.569 l 3.297,1.99 1.398,-2.312 1.875,1.134 -2.53,4.189 -5.798,-3.503 c -1.406,-0.849 -1.754,-2.329 -0.846,-3.832 l 5.13,-8.496 c 0.897,-1.49 2.372,-1.867 3.775,-1.018 z"
             style="fill:#ffffff;fill-opacity:1;fill-rule:nonzero;stroke:none"
             id="path78" /></g><g
           id="g80"
           transform="translate(76.6943,234.1211)"
           style="fill:#ffffff"><path
             d="m 0,0 -3.055,3.908 -1.741,-1.362 1.714,-2.195 -3.781,-2.955 -2.981,3.812 3.922,3.068 -1.291,1.648 -3.922,-3.063 -2.642,3.383 3.657,2.856 1.625,-2.08 1.714,1.338 -2.977,3.811 -8.374,-6.544 1.353,-1.728 1.042,0.814 6.912,-8.847 -1.042,-0.816 1.338,-1.71 z"
             style="fill:#ffffff;fill-opacity:1;fill-rule:nonzero;stroke:none"
             id="path82" /></g><g
           id="g84"
           transform="translate(58.9512,234.3369)"
           style="fill:#ffffff"><path
             d="m 0,0 -3.069,3.13 -8.612,-8.454 3.071,-3.13 1.648,1.621 -1.534,1.563 1.764,1.727 7.869,-8.012 -1.033,-1.009 1.523,-1.551 3.862,3.793 -1.523,1.551 -1.042,-1.026 -7.867,8.01 1.76,1.731 1.535,-1.56 z"
             style="fill:#ffffff;fill-opacity:1;fill-rule:nonzero;stroke:none"
             id="path86" /></g><g
           id="g88"
           transform="translate(57.1055,216.6338)"
           style="fill:#ffffff"><path
             d="m 0,0 -1.655,1.407 -0.869,-1.024 -8.558,7.275 0.873,1.026 -1.668,1.418 -3.341,-3.928 1.669,-1.419 0.859,1.009 8.553,-7.274 -0.856,-1.011 1.652,-1.407 z"
             style="fill:#ffffff;fill-opacity:1;fill-rule:nonzero;stroke:none"
             id="path90" /></g><g
           id="g92"
           transform="translate(52.1943,210.7427)"
           style="fill:#ffffff"><path
             d="m 0,0 -4.329,3.034 -1.294,-1.844 2.555,-1.787 -2.381,-3.395 -9.196,6.441 0.825,1.182 -1.791,1.256 -3.015,-4.303 1.795,-1.255 0.758,1.084 9.196,-6.445 -0.761,-1.084 1.781,-1.245 z"
             style="fill:#ffffff;fill-opacity:1;fill-rule:nonzero;stroke:none"
             id="path94" /></g><g
           id="g96"
           transform="translate(42.4971,201.7427)"
           style="fill:#ffffff"><path
             d="m 0,0 -8.762,4.659 c -1.552,0.826 -3.012,0.395 -3.781,-1.054 l -2.08,-3.904 c -0.766,-1.449 -0.307,-2.901 1.243,-3.727 l 8.763,-4.66 c 1.535,-0.814 2.994,-0.382 3.763,1.065 l 2.08,3.903 C 1.994,-2.269 1.537,-0.815 0,0 m -1.735,-1.918 c 0.75,-0.398 1.013,-0.83 0.699,-1.423 L -2.429,-5.956 C -2.741,-6.551 -3.257,-6.589 -4.006,-6.19 l -7.671,4.075 c -0.761,0.407 -0.98,0.839 -0.666,1.43 l 1.392,2.619 c 0.316,0.591 0.785,0.632 1.549,0.224 z"
             style="fill:#ffffff;fill-opacity:1;fill-rule:nonzero;stroke:none"
             id="path98" /></g><g
           id="g100"
           transform="translate(29.752,193.1875)"
           style="fill:#ffffff"><path
             d="m 0,0 -2.499,0.97 c -1.637,0.634 -3.03,0.051 -3.623,-1.475 l -2.808,-7.238 2.046,-0.794 0.477,1.235 10.467,-4.06 -0.477,-1.238 2.024,-0.786 1.908,4.917 -2.024,0.788 -0.527,-1.365 -4.367,1.694 1.287,3.314 C 2.563,-2.288 1.874,-0.729 0,0 m -1.012,-2.278 c 0.789,-0.307 1.076,-0.714 0.833,-1.341 l -1.156,-2.982 -4.17,1.62 1.158,2.981 c 0.241,0.625 0.707,0.742 1.518,0.429 z"
             style="fill:#ffffff;fill-opacity:1;fill-rule:nonzero;stroke:none"
             id="path102" /></g><g
           id="g104"
           transform="translate(256.2578,154.8721)"
           style="fill:#ffffff"><path
             d="m 0,0 -2.188,-0.122 0.168,-2.88 6.556,-2.667 -6.204,-3.427 0.181,-3.114 2.188,0.126 -0.077,1.322 6.277,3.884 4.73,0.273 0.08,-1.419 2.172,0.124 -0.305,5.287 -2.172,-0.127 0.08,-1.38 -4.849,-0.279 -6.557,3.08 z"
             style="fill:#ffffff;fill-opacity:1;fill-rule:nonzero;stroke:none"
             id="path106" /></g><g
           id="g108"
           transform="translate(270.3008,139.9668)"
           style="fill:#ffffff"><path
             d="m 0,0 -8.938,0.376 -0.208,-4.953 2.189,-0.092 0.107,2.565 4.578,-0.193 -0.157,-3.844 c -0.032,-0.672 -0.477,-0.932 -1.323,-0.897 l -8.681,0.361 c -0.865,0.039 -1.247,0.328 -1.217,1.002 l 0.16,3.855 2.556,-0.113 0.096,2.229 -4.748,0.201 -0.285,-6.81 c -0.072,-1.639 0.971,-2.749 2.725,-2.823 l 9.919,-0.414 c 1.736,-0.068 2.867,0.949 2.938,2.584 z"
             style="fill:#ffffff;fill-opacity:1;fill-rule:nonzero;stroke:none"
             id="path110" /></g><g
           id="g112"
           transform="translate(266.6689,126.6768)"
           style="fill:#ffffff"><path
             d="m 0,0 -9.803,1.57 c -1.735,0.282 -2.977,-0.601 -3.233,-2.218 l -0.702,-4.366 c -0.265,-1.629 0.641,-2.845 2.381,-3.125 l 9.798,-1.57 c 1.716,-0.275 2.955,0.604 3.218,2.221 l 0.698,4.369 C 2.614,-1.494 1.717,-0.273 0,0 M -1.024,-2.371 C -0.184,-2.514 0.2,-2.83 0.098,-3.494 L -0.372,-6.42 C -0.48,-7.082 -0.953,-7.287 -1.786,-7.154 l -8.578,1.379 c -0.858,0.13 -1.202,0.468 -1.098,1.129 l 0.473,2.929 c 0.104,0.664 0.538,0.852 1.39,0.715 z"
             style="fill:#ffffff;fill-opacity:1;fill-rule:nonzero;stroke:none"
             id="path114" /></g><g
           id="g116"
           transform="translate(267.1748,113.2979)"
           style="fill:#ffffff"><path
             d="m 0,0 -5.113,1.354 -0.577,-2.174 3.012,-0.803 -1.065,-4.012 -10.85,2.877 0.365,1.391 -2.116,0.564 -1.347,-5.082 2.125,-0.56 0.337,1.283 10.853,-2.877 -0.337,-1.279 2.1,-0.557 z"
             style="fill:#ffffff;fill-opacity:1;fill-rule:nonzero;stroke:none"
             id="path118" /></g><g
           id="g120"
           transform="translate(260.4736,100.2842)"
           style="fill:#ffffff"><path
             d="M 0,0 -9.282,3.518 C -10.921,4.145 -12.319,3.531 -12.897,2 l -1.567,-4.137 c -0.582,-1.539 0.052,-2.918 1.699,-3.543 l 9.278,-3.517 c 1.628,-0.619 3.022,-0.006 3.599,1.527 l 1.572,4.135 C 2.26,-2 1.627,-0.621 0,0 m -1.483,-2.125 c 0.793,-0.303 1.114,-0.691 0.878,-1.322 l -1.054,-2.77 C -1.896,-6.846 -2.405,-6.945 -3.198,-6.65 l -8.12,3.082 c -0.806,0.306 -1.078,0.707 -0.838,1.336 l 1.051,2.769 c 0.236,0.625 0.701,0.731 1.506,0.42 z"
             style="fill:#ffffff;fill-opacity:1;fill-rule:nonzero;stroke:none"
             id="path122" /></g><g
           id="g124"
           transform="translate(246.0215,92.6357)"
           style="fill:#ffffff"><path
             d="m 0,0 -1.924,1.055 -1.747,-3.182 8.06,-4.428 c 0.589,-0.326 1.309,-0.654 2.168,-0.963 l -12.978,0.385 -1.892,-3.443 1.923,-1.053 0.635,1.158 9.843,-5.406 -0.637,-1.162 1.903,-1.043 1.748,3.182 -8.04,4.421 c -0.592,0.325 -1.327,0.665 -2.212,0.985 l 13.122,-0.195 1.137,2.074 -11.751,6.453 z"
             style="fill:#ffffff;fill-opacity:1;fill-rule:nonzero;stroke:none"
             id="path126" /></g><g
           id="g128"
           transform="translate(249.0273,70.7021)"
           style="fill:#ffffff"><path
             d="m 0,0 -1.743,1.299 -0.79,-1.063 -9.027,6.715 0.787,1.061 -1.764,1.302 -2.268,-3.058 5.479,-4.07 -2.77,-3.725 -5.478,4.064 -2.273,-3.054 1.759,-1.307 0.789,1.059 9.027,-6.705 -0.787,-1.069 1.748,-1.291 2.269,3.059 -5.467,4.066 2.766,3.727 5.474,-4.065 z"
             style="fill:#ffffff;fill-opacity:1;fill-rule:nonzero;stroke:none"
             id="path130" /></g><g
           id="g132"
           transform="translate(238.8877,57.5186)"
           style="fill:#ffffff"><path
             d="M 0,0 -3.647,3.318 -5.123,1.697 -3.079,-0.16 -5.667,-3.014 C -6.12,-3.506 -6.629,-3.418 -7.255,-2.85 l -6.429,5.836 c -0.641,0.586 -0.749,1.059 -0.295,1.553 l 2.588,2.848 1.996,-1.815 1.475,1.617 -3.619,3.297 -4.557,-5.019 c -1.102,-1.209 -1.014,-2.729 0.288,-3.906 l 7.342,-6.678 c 1.291,-1.17 2.811,-1.113 3.912,0.099 z"
             style="fill:#ffffff;fill-opacity:1;fill-rule:nonzero;stroke:none"
             id="path134" /></g><g
           id="g136"
           transform="translate(229.3408,47.5693)"
           style="fill:#ffffff"><path
             d="m 0,0 -3.223,3.766 -1.674,-1.436 1.802,-2.119 -3.646,-3.119 -3.143,3.676 3.783,3.236 -1.362,1.59 -3.779,-3.235 -2.793,3.266 3.526,3.016 1.716,-2.004 1.65,1.412 -3.142,3.674 -8.07,-6.909 1.418,-1.666 1.009,0.862 7.295,-8.535 -1.002,-0.864 1.41,-1.646 z"
             style="fill:#ffffff;fill-opacity:1;fill-rule:nonzero;stroke:none"
             id="path138" /></g><g
           id="g140"
           transform="translate(211.874,47.5439)"
           style="fill:#ffffff"><path
             d="m 0,0 -2.433,3.643 -10.031,-6.706 2.433,-3.642 1.924,1.287 -1.219,1.818 2.055,1.368 6.238,-9.334 -1.203,-0.799 1.211,-1.811 4.497,3.01 -1.203,1.807 -1.218,-0.809 -6.237,9.334 2.052,1.371 1.219,-1.816 z"
             style="fill:#ffffff;fill-opacity:1;fill-rule:nonzero;stroke:none"
             id="path142" /></g><g
           id="g144"
           transform="translate(193.6865,35.9443)"
           style="fill:#ffffff"><path
             d="m 0,0 -1.955,4.422 -9.411,-4.162 0.889,-2.006 1.211,0.535 4.537,-10.266 -1.21,-0.539 0.881,-1.986 4.858,2.147 -0.882,1.988 -1.37,-0.608 -1.917,4.334 4.714,2.09 -0.881,2.004 -4.722,-2.084 -1.739,3.928 3.783,1.666 1.066,-2.416 z"
             style="fill:#ffffff;fill-opacity:1;fill-rule:nonzero;stroke:none"
             id="path146" /></g><g
           id="g148"
           transform="translate(162.1895,28.2979)"
           style="fill:#ffffff"><path
             d="m 0,0 -0.276,2.174 -2.862,-0.369 -2.205,-6.731 -3.847,5.955 -3.094,-0.392 0.272,-2.172 1.315,0.164 4.308,-5.99 0.602,-4.7 -1.412,-0.181 0.278,-2.154 5.249,0.667 -0.276,2.159 -1.37,-0.178 -0.615,4.818 2.618,6.762 z"
             style="fill:#ffffff;fill-opacity:1;fill-rule:nonzero;stroke:none"
             id="path150" /></g><g
           id="g152"
           transform="translate(148.5342,24.5107)"
           style="fill:#ffffff"><path
             d="m 0,0 -0.035,4.381 -12.07,-0.096 0.04,-4.381 2.308,0.02 -0.016,2.18 2.467,0.023 0.091,-11.227 -1.438,-0.011 0.017,-2.172 5.409,0.041 -0.017,2.176 -1.461,-0.012 -0.09,11.226 2.467,0.024 0.017,-2.188 z"
             style="fill:#ffffff;fill-opacity:1;fill-rule:nonzero;stroke:none"
             id="path154" /></g><g
           id="g156"
           transform="translate(133.249,13.46)"
           style="fill:#ffffff"><path
             d="m 0,0 0.187,2.164 -1.338,0.115 0.98,11.188 1.338,-0.121 0.191,2.191 -5.136,0.447 -0.189,-2.179 1.32,-0.117 L -3.63,2.502 -4.948,2.613 -5.137,0.453 Z"
             style="fill:#ffffff;fill-opacity:1;fill-rule:nonzero;stroke:none"
             id="path158" /></g><g
           id="g160"
           transform="translate(124.4287,17.083)"
           style="fill:#ffffff"><path
             d="M 0,0 0.623,3.34 C 0.944,5.068 0.11,6.307 -1.499,6.609 l -3.164,0.59 c -0.661,0.123 -0.852,0.6 -0.699,1.434 l 0.337,1.781 c 0.158,0.854 0.503,1.19 1.162,1.068 l 3.166,-0.591 -0.366,-1.955 2.406,-0.456 0.769,4.114 -6.29,1.177 c -1.611,0.305 -2.861,-0.568 -3.179,-2.296 L -7.942,8.354 C -8.268,6.627 -7.416,5.363 -5.807,5.059 L -2.661,4.473 C -2,4.354 -1.805,3.893 -1.963,3.039 L -2.33,1.078 c -0.158,-0.836 -0.51,-1.215 -1.169,-1.09 l -3.452,0.651 0.441,2.363 -2.505,0.469 -0.843,-4.502 6.7,-1.252 C -1.549,-2.586 -0.32,-1.713 0,0"
             style="fill:#ffffff;fill-opacity:1;fill-rule:nonzero;stroke:none"
             id="path162" /></g><g
           id="g164"
           transform="translate(111.0918,27.3896)"
           style="fill:#ffffff"><path
             d="m 0,0 c -0.241,-0.811 -0.624,-1.127 -1.268,-0.939 l -3.067,0.906 1.268,4.287 3.069,-0.9 C 0.646,3.162 0.799,2.703 0.555,1.871 Z m 0.844,-10.875 0.612,2.084 -1.284,0.379 0.849,2.885 c 0.484,1.621 0.203,2.552 -1.231,3.414 1.418,-0.221 2.249,0.236 2.616,1.463 l 0.709,2.4 C 3.614,3.434 2.915,4.771 1.342,5.236 L -6.101,7.441 -6.72,5.336 -5.451,4.965 -8.637,-5.809 l -1.266,0.381 -0.616,-2.086 3.653,-1.082 1.946,6.575 3.122,-0.926 c 0.666,-0.198 0.769,-0.678 0.526,-1.494 l -1.577,-5.34 z"
             style="fill:#ffffff;fill-opacity:1;fill-rule:nonzero;stroke:none"
             id="path166" /></g><g
           id="g168"
           transform="translate(96.8809,21.1279)"
           style="fill:#ffffff"><path
             d="M 0,0 1.956,4.553 -0.075,5.428 -1.176,2.869 -5.582,4.762 -3.674,9.211 0.9,7.246 1.724,9.17 -2.85,11.135 -1.151,15.086 3.113,13.25 2.071,10.822 4.064,9.963 5.975,14.4 -3.789,18.6 -4.654,16.584 -3.438,16.064 -7.871,5.748 -9.09,6.27 -9.947,4.268 Z"
             style="fill:#ffffff;fill-opacity:1;fill-rule:nonzero;stroke:none"
             id="path170" /></g><g
           id="g172"
           transform="translate(90.2627,38.5498)"
           style="fill:#ffffff"><path
             d="m 0,0 1.09,1.908 -2.898,1.656 -8.875,-9.322 3.506,12.387 -2.884,1.646 -1.085,-1.902 1.148,-0.658 -3.545,-13.406 2.623,-1.5 9.772,9.847 z"
             style="fill:#ffffff;fill-opacity:1;fill-rule:nonzero;stroke:none"
             id="path174" /></g><g
           id="g176"
           transform="translate(69.5898,35.3076)"
           style="fill:#ffffff"><path
             d="m 0,0 1.269,1.768 -1.092,0.781 6.54,9.125 1.094,-0.783 1.275,1.791 -4.192,2.996 -1.277,-1.782 1.078,-0.775 -6.541,-9.125 -1.078,0.77 -1.264,-1.76 z"
             style="fill:#ffffff;fill-opacity:1;fill-rule:nonzero;stroke:none"
             id="path178" /></g><g
           id="g180"
           transform="translate(71.3418,50.5127)"
           style="fill:#ffffff"><path
             d="m 0,0 1.44,1.656 -2.747,2.381 -6.03,-6.941 c -0.438,-0.51 -0.915,-1.143 -1.4,-1.918 l 3.124,12.607 -2.97,2.576 -1.435,-1.654 1,-0.867 -7.364,-8.481 -1,0.87 -1.423,-1.643 2.74,-2.381 6.019,6.93 c 0.442,0.5 0.928,1.154 1.432,1.947 l -2.963,-12.777 1.791,-1.555 8.788,10.119 z"
             style="fill:#ffffff;fill-opacity:1;fill-rule:nonzero;stroke:none"
             id="path182" /></g><g
           id="g184"
           transform="translate(59.748,60.7178)"
           style="fill:#ffffff"><path
             d="m 0,0 1.644,1.447 -2.415,2.74 -9.11,-8.023 c -0.635,-0.56 -1.144,-0.641 -1.588,-0.137 l -2.061,2.346 c -0.445,0.5 -0.29,0.981 0.351,1.547 l 9.106,8.016 -2.532,2.877 -1.648,-1.446 0.889,-1.01 -7.567,-6.666 c -1.526,-1.343 -1.653,-3.142 -0.4,-4.56 l 2.286,-2.598 c 1.265,-1.437 3.062,-1.539 4.592,-0.193 l 7.566,6.662 z"
             style="fill:#ffffff;fill-opacity:1;fill-rule:nonzero;stroke:none"
             id="path186" /></g><g
           id="g188"
           transform="translate(45.751,77.9873)"
           style="fill:#ffffff"><path
             d="M 0,0 1.898,1.1 0.074,4.244 -7.881,-0.373 C -8.46,-0.709 -9.116,-1.158 -9.829,-1.734 l 7.034,10.918 -1.975,3.394 -1.892,-1.099 0.663,-1.141 -9.707,-5.643 -0.668,1.141 -1.875,-1.086 1.824,-3.146 7.935,4.609 c 0.581,0.34 1.251,0.797 1.981,1.383 l -6.933,-11.133 1.192,-2.049 11.587,6.731 z"
             style="fill:#ffffff;fill-opacity:1;fill-rule:nonzero;stroke:none"
             id="path190" /></g><g
           id="g192"
           transform="translate(26.0664,85.2334)"
           style="fill:#ffffff"><path
             d="m 0,0 1.999,0.855 -0.478,1.127 10.956,8.516 -1.412,3.305 -13.738,-1.99 -0.465,1.085 -1.998,-0.849 1.195,-2.797 4.979,0.857 L 2.72,6.164 -1.332,3.135 Z m 4.436,7.436 -1.282,2.998 6.911,1.142 z"
             style="fill:#ffffff;fill-opacity:1;fill-rule:nonzero;stroke:none"
             id="path194" /></g><g
           id="g196"
           transform="translate(33.1475,103.1729)"
           style="fill:#ffffff"><path
             d="M 0,0 2.103,0.611 1.083,4.102 -7.746,1.523 C -8.389,1.336 -9.135,1.061 -9.965,0.674 l 9.451,8.91 -1.102,3.766 -2.108,-0.608 0.374,-1.275 -10.78,-3.143 -0.369,1.268 -2.089,-0.61 1.021,-3.482 8.808,2.568 c 0.644,0.19 1.407,0.475 2.259,0.868 l -9.402,-9.143 0.663,-2.277 12.863,3.752 z"
             style="fill:#ffffff;fill-opacity:1;fill-rule:nonzero;stroke:none"
             id="path198" /></g><g
           id="g200"
           transform="translate(15.6572,116.2627)"
           style="fill:#ffffff"><path
             d="M 0,0 4.797,0.762 4.416,3.156 1.765,2.734 0.971,7.748 13.384,2.398 15.355,2.711 13.765,12.777 9.009,12.025 9.387,9.605 11.98,10.012 12.733,5.256 0.352,10.654 -1.637,10.342 Z"
             style="fill:#ffffff;fill-opacity:1;fill-rule:nonzero;stroke:none"
             id="path202" /></g><g
           id="g204"
           transform="translate(16.3721,130.54)"
           style="fill:#ffffff"><path
             d="m 0,0 9.915,0.49 c 1.756,0.086 2.787,1.201 2.707,2.844 l -0.218,4.418 c -0.08,1.639 -1.216,2.646 -2.97,2.564 L -0.481,9.827 C -2.217,9.738 -3.253,8.625 -3.169,6.985 L -2.952,2.574 C -2.874,0.932 -1.734,-0.084 0,0 M 0.509,2.541 C -0.341,2.494 -0.786,2.733 -0.817,3.407 L -0.964,6.364 C -0.996,7.03 -0.575,7.331 0.274,7.37 L 8.943,7.791 C 9.81,7.84 10.218,7.583 10.252,6.914 L 10.397,3.955 C 10.433,3.282 10.05,3.006 9.182,2.967 Z"
             style="fill:#ffffff;fill-opacity:1;fill-rule:nonzero;stroke:none"
             id="path206" /></g><g
           id="g208"
           transform="translate(23.0615,143.7158)"
           style="fill:#ffffff"><path
             d="M 0,0 2.673,-0.208 C 4.424,-0.34 5.586,0.619 5.713,2.25 l 0.597,7.74 -2.187,0.17 -0.1,-1.319 -11.196,0.86 0.099,1.321 -2.165,0.17 -0.403,-5.26 2.164,-0.168 0.113,1.459 4.669,-0.36 -0.275,-3.545 C -3.115,1.445 -2.009,0.154 0,0 m 0.31,2.473 c -0.846,0.064 -1.237,0.369 -1.187,1.04 L -0.63,6.705 3.831,6.358 3.586,3.17 C 3.532,2.501 3.117,2.252 2.254,2.321 Z"
             style="fill:#ffffff;fill-opacity:1;fill-rule:nonzero;stroke:none"
             id="path210" /></g><g
           id="g212"
           transform="translate(184.4209,23.4209)"
           style="fill:#ffffff"><path
             d="m 0,0 -3.118,9.426 c -0.554,1.668 -1.908,2.365 -3.463,1.847 l -4.2,-1.39 C -12.337,9.371 -13.01,8.008 -12.457,6.332 l 3.119,-9.418 c 0.544,-1.648 1.896,-2.35 3.454,-1.834 l 4.2,1.389 C -0.129,-3.014 0.545,-1.643 0,0 m -2.581,-0.186 c 0.265,-0.808 0.16,-1.296 -0.478,-1.515 l -2.816,-0.926 c -0.635,-0.211 -1.035,0.115 -1.3,0.922 l -2.724,8.242 c -0.278,0.824 -0.137,1.285 0.501,1.498 l 2.813,0.93 c 0.637,0.205 1.006,-0.084 1.278,-0.906 z"
             style="fill:#ffffff;fill-opacity:1;fill-rule:nonzero;stroke:none"
             id="path214" /></g><g
           id="g216"
           transform="translate(228.627,94.9814)"
           style="fill:#ffffff"><path
             d="m 0,0 -14.637,4.754 -1.081,0.355 -0.586,-0.974 c -3.495,-5.774 -7.719,-11.125 -12.536,-15.91 l -0.874,-0.862 0.722,-0.99 8.881,-12.227 c -6.966,-6.41 -14.765,-11.759 -23.23,-15.923 l -9.029,12.42 -0.677,0.937 -1.051,-0.461 c -5.859,-2.547 -12.055,-4.4 -18.412,-5.519 l -1.178,-0.204 v -1.203 -15.203 c -4.369,-0.576 -8.791,-0.888 -13.178,-0.888 -4.993,0 -10.026,0.396 -14.975,1.158 v 15.258 1.173 l -1.155,0.229 c -6.159,1.223 -12.205,3.178 -17.975,5.803 l -1.063,0.48 -0.688,-0.945 -8.988,-12.371 c -8.395,4.293 -16.111,9.758 -22.982,16.263 l 8.921,12.274 0.709,0.976 -0.842,0.868 c -4.532,4.656 -8.502,9.826 -11.794,15.357 l -0.585,0.979 -1.09,-0.35 -14.626,-4.754 c -4.436,8.338 -7.63,17.242 -9.512,26.514 l 14.376,4.666 1.171,0.375 -0.198,1.22 c -0.739,4.496 -1.121,9.029 -1.121,13.471 0,2.162 0.106,4.451 0.321,6.997 l 0.094,1.126 -1.082,0.354 -14.655,4.762 c 1.258,9.369 3.85,18.469 7.715,27.091 l 14.353,-4.661 1.18,-0.383 0.545,1.111 c 3.223,6.533 7.312,12.631 12.166,18.119 l 0.757,0.86 -0.673,0.928 -9.03,12.433 c 6.586,6.781 14.079,12.558 22.299,17.198 l 8.89,-12.233 0.721,-0.998 1.096,0.567 c 6.848,3.531 14.112,6.074 21.59,7.555 l 1.155,0.229 v 1.176 15.262 c 4.962,0.754 9.991,1.155 14.975,1.155 4.393,0 8.817,-0.311 13.178,-0.894 v -15.2 -1.2 l 1.178,-0.211 c 7.698,-1.353 15.125,-3.78 22.075,-7.212 l 1.086,-0.535 0.709,0.978 8.918,12.274 c 8.277,-4.519 15.852,-10.182 22.544,-16.861 l -8.977,-12.359 -0.69,-0.946 0.79,-0.864 c 5.126,-5.594 9.455,-11.895 12.89,-18.729 l 0.549,-1.099 1.17,0.38 14.377,4.673 C 6.85,78.976 9.499,69.893 10.801,60.546 L -3.828,55.794 -4.913,55.441 -4.81,54.299 c 0.241,-2.639 0.361,-5.111 0.361,-7.553 0,-4.615 -0.408,-9.332 -1.209,-14.017 L -5.867,31.512 -4.692,31.127 9.667,26.461 C 7.731,17.211 4.48,8.324 0,0 m -2.652,33.475 c 0.692,4.437 1.065,8.896 1.065,13.271 0,2.171 -0.097,4.367 -0.28,6.675 l 14.701,4.776 1.13,0.367 -0.152,1.175 C 12.48,70.215 9.516,80.381 5.006,89.956 L 4.465,91.101 3.271,90.708 -11.182,86.01 c -3.27,6.301 -7.297,12.142 -11.983,17.408 l 9.026,12.43 0.704,0.977 -0.841,0.862 c -7.39,7.565 -15.871,13.901 -25.194,18.835 l -1.093,0.579 -0.733,-1.002 -8.966,-12.336 c -6.513,3.1 -13.423,5.356 -20.564,6.717 v 15.274 1.239 l -1.223,0.18 c -4.893,0.715 -9.877,1.08 -14.817,1.08 -5.538,0 -11.138,-0.459 -16.641,-1.362 l -1.195,-0.197 v -1.218 -15.345 c -6.938,-1.477 -13.685,-3.839 -20.094,-7.025 l -8.935,12.298 -0.742,1.018 -1.105,-0.605 c -9.26,-5.074 -17.644,-11.537 -24.926,-19.211 l -0.815,-0.863 0.695,-0.961 9.086,-12.501 c -4.421,-5.136 -8.204,-10.768 -11.271,-16.769 l -14.425,4.689 -1.209,0.388 -0.531,-1.15 c -4.453,-9.589 -7.358,-19.775 -8.637,-30.27 l -0.142,-1.173 1.12,-0.362 14.732,-4.787 c -0.16,-2.175 -0.241,-4.188 -0.241,-6.101 0,-4.197 0.336,-8.461 0.978,-12.719 l -14.451,-4.693 -1.199,-0.385 0.233,-1.246 c 1.974,-10.385 5.547,-20.353 10.621,-29.621 l 0.569,-1.043 1.126,0.363 14.707,4.782 c 3.08,-5.014 6.695,-9.723 10.772,-14.034 l -8.963,-12.337 -0.729,-1.006 0.889,-0.862 c 7.594,-7.371 16.233,-13.496 25.676,-18.181 l 1.083,-0.535 0.712,0.976 9.033,12.44 c 5.284,-2.317 10.782,-4.09 16.383,-5.286 v -15.338 -1.218 l 1.195,-0.201 c 5.492,-0.901 11.09,-1.362 16.641,-1.362 4.933,0 9.92,0.365 14.812,1.078 l 1.228,0.186 v 1.228 15.274 c 5.774,1.103 11.418,2.797 16.808,5.043 l 9.075,-12.49 0.705,-0.965 1.074,0.517 c 9.515,4.545 18.247,10.528 25.946,17.795 l 0.914,0.864 -0.737,1.017 -8.93,12.289 c 4.366,4.447 8.229,9.358 11.502,14.615 L 0.256,-3.09 1.379,-3.459 1.948,-2.426 c 5.13,9.246 8.765,19.199 10.793,29.576 l 0.244,1.243 -1.202,0.392 z"
             style="fill:#ffffff;fill-opacity:1;fill-rule:evenodd;stroke:none"
             id="path218" /></g><g
           id="g220"
           transform="translate(161.5596,195.7246)"
           style="fill:#ffffff"><path
             d="m 0,0 c -2.34,-0.527 -4.2,0.359 -4.926,1.303 -0.724,0.939 0.217,3.839 1.015,3.693 0.802,-0.144 0.072,-0.653 -0.149,-1.955 -0.211,-1.303 0.581,-1.666 0.581,-1.666 7.463,5.647 1.668,7.391 1.668,7.391 2.028,2.386 0.874,5.937 0.874,5.937 -4.641,-1.52 -4.713,-5.216 -4.713,-5.216 -1.086,1.738 -4.057,0.652 -4.779,-1.014 -0.728,-1.663 -0.576,-6.301 -0.576,-6.301 2.966,-0.653 2.313,3.259 3.399,3.403 1.085,0.144 1.739,-3.621 -3.331,-4.563 -5.072,-0.94 -6.377,1.956 -6.952,3.55 -0.581,1.592 1.303,2.973 1.736,0.797 0.433,-2.174 2.174,-2.968 2.174,-2.968 -0.652,1.589 1.956,4.053 1.74,6.807 -0.216,2.752 -4.926,1.301 -4.926,1.301 0.597,1.36 0.368,2.766 -0.149,3.992 -0.306,0.725 -0.705,1.386 -1.096,1.942 v 2.65 h 2.129 v 2.788 h -2.129 v 1.631 h -2.785 v -1.631 h -2.128 v -2.788 h 2.128 v -2.752 c -0.367,-0.536 -0.74,-1.157 -1.032,-1.84 -0.514,-1.226 -0.735,-2.632 -0.142,-3.992 0,0 -4.705,1.451 -4.926,-1.301 -0.215,-2.754 2.391,-5.218 1.741,-6.807 0,0 1.738,0.794 2.174,2.968 0.432,2.176 2.314,0.795 1.736,-0.797 -0.583,-1.594 -1.883,-4.49 -6.954,-3.55 -5.068,0.942 -4.412,4.707 -3.331,4.563 1.087,-0.144 0.436,-4.056 3.408,-3.403 0,0 0.139,4.638 -0.585,6.301 -0.722,1.666 -3.694,2.752 -4.781,1.014 0,0 -0.067,3.696 -4.705,5.216 0,0 -1.16,-3.551 0.868,-5.937 0,0 -5.793,-1.744 1.67,-7.391 0,0 0.793,0.363 0.575,1.666 -0.218,1.302 -0.938,1.811 -0.14,1.955 0.793,0.146 1.732,-2.754 1.012,-3.693 -0.724,-0.944 -2.587,-1.83 -4.927,-1.303 -5.158,1.157 -1.323,9.343 -8.112,10.139 0,0 3.611,-8.744 7.945,-13.981 H 0.169 C 4.501,1.395 8.112,10.139 8.112,10.139 1.323,9.343 5.154,1.157 0,0"
             style="fill:#ffffff;fill-opacity:1;fill-rule:evenodd;stroke:none"
             id="path222" /></g><g
           id="g224"
           transform="translate(144.8613,175.5293)"
           style="fill:#ffffff"><path
             d="M 0,0 0.435,-0.25 1.21,1.08 0.29,1.616 0.833,2.532 -0.485,3.298 -1.023,2.39 -1.94,2.933 -2.721,1.609 -2.545,1.5 C -1.636,1.374 -0.618,0.823 0,0 m 1.082,-25.081 v 0 l 0.002,-0.005 z m 10.482,18.379 c -0.796,0.095 -2.108,0.472 -2.472,1.046 0.289,0.619 0.696,1.828 0.696,3.23 0,0.772 -0.127,1.594 -0.501,2.374 C 8.991,0.785 8.41,1.39 7.605,1.721 7.016,2.053 6.366,2.224 5.685,2.224 3.481,2.224 1.682,0.418 1.682,-1.78 1.682,-3.259 2.519,-4.583 3.809,-5.281 3.802,-5.305 3.802,-5.305 3.798,-5.321 3.469,-5.347 2.351,-5.439 2.351,-5.439 L 2.278,-5.664 C 2.271,-5.696 2.226,-5.851 2.226,-6.058 c 0,-0.2 0.041,-0.433 0.18,-0.67 C 2.482,-6.854 2.635,-6.98 2.835,-7.089 2.763,-7.183 2.76,-7.216 2.72,-7.285 2.431,-7.287 1.12,-7.359 1.12,-7.359 L 1.099,-7.662 v -0.109 c 0,-0.324 0.093,-0.76 0.408,-1.057 C 1.461,-8.896 1.435,-8.917 1.395,-8.962 H 0.236 c -0.004,0.006 -0.55,0.108 -0.805,0.146 -0.153,0.182 -1.124,1.358 -1.231,1.485 -0.268,1.018 -0.371,1.807 -0.371,2.367 0,1.2 0.413,1.517 0.413,1.529 1.029,0.394 1.267,0.775 1.305,1.009 0.152,0.307 0.254,0.626 0.254,0.925 0,0.242 -0.064,0.496 -0.174,0.734 -0.094,0.217 -0.228,0.404 -0.393,0.576 v 0.01 c -0.605,0.63 -1.493,1.011 -2.103,1.012 -0.253,0 -0.579,-0.046 -0.655,-0.325 -0.055,-0.152 -0.198,-0.254 -0.37,-0.235 -0.158,0.011 -0.298,0.136 -0.316,0.305 -0.009,0.033 -0.082,0.572 -0.546,1.127 -0.069,0.05 -0.122,0.12 -0.2,0.158 -0.8,0.423 -1.873,0.329 -2.681,-0.222 -0.858,-0.592 -1.262,-1.601 -1.13,-2.778 l 0.085,-0.705 0.514,0.509 c 0.659,0.667 2.236,-0.521 2.878,-1.091 -0.031,-0.3 -0.203,-3.394 -0.205,-3.623 -1.008,-1.021 -2.092,-2.376 -2.401,-2.767 -0.196,-0.028 -0.857,-0.152 -0.857,-0.152 0,0 -0.853,0.006 -1.102,0.006 -0.054,0.045 -0.063,0.066 -0.115,0.134 0.313,0.297 0.409,0.733 0.409,1.057 0,0.045 0,0.08 -0.002,0.109 l -0.026,0.303 c 0,0 -1.303,0.072 -1.585,0.074 -0.042,0.069 -0.068,0.102 -0.122,0.196 0.202,0.109 0.354,0.235 0.432,0.361 0.135,0.237 0.176,0.47 0.176,0.67 0,0.207 -0.043,0.362 -0.055,0.394 l -0.063,0.225 c 0,0 -1.122,0.092 -1.457,0.118 -0.005,0.016 -0.005,0.016 -0.015,0.04 1.299,0.698 2.135,2.022 2.135,3.501 0,2.198 -1.791,4.004 -4.013,4.004 -0.669,0 -1.328,-0.171 -1.942,-0.521 -0.785,-0.313 -1.351,-0.918 -1.685,-1.8 -0.347,-0.752 -0.479,-1.563 -0.479,-2.326 0,-1.393 0.421,-2.614 0.711,-3.233 -0.366,-0.574 -1.684,-0.951 -2.478,-1.046 l -0.389,-0.05 0.094,-0.393 c 0.365,-1.499 1.599,-2.045 3.553,-1.584 0.311,0.082 0.613,0.253 0.894,0.49 0.158,-0.222 0.276,-0.395 0.367,-0.501 -0.026,-0.237 -0.325,-3.312 -0.325,-3.312 -0.106,-0.726 -1.796,-1.165 -2.602,-1.273 l -0.392,-0.05 0.09,-0.375 c 0.377,-1.514 1.622,-2.06 3.554,-1.601 1.091,0.265 1.896,1.387 2.428,3.254 0.046,-0.064 0.073,-0.09 0.105,-0.125 -0.059,-0.686 -0.356,-4.491 -0.514,-5.578 -0.097,-0.723 -1.8,-1.178 -2.602,-1.282 l -0.39,-0.044 0.095,-0.385 c 0.38,-1.496 1.594,-2.056 3.553,-1.585 2.19,0.515 2.791,4.329 2.947,5.841 v -4.59 c 0,0 0.378,-0.054 0.447,-0.063 0,-0.038 -0.006,-0.064 -0.006,-0.108 0,-0.078 0.006,-0.165 0.015,-0.242 -0.59,-1.271 -1.282,-2.832 -1.604,-3.528 -2.102,0.329 -3.95,-0.77 -4.032,-0.825 l 0.79,-1.307 c 0.012,0.009 0.646,0.379 1.516,0.569 -0.504,-0.49 -0.956,-1.064 -1.122,-1.663 l 1.473,-0.407 c 0.183,0.646 1.398,1.625 2.215,2.09 0.065,0.057 0.136,0.102 0.185,0.171 0.408,0.108 1.64,0.152 2.804,0.11 l 0.07,1.537 c -0.89,0.032 -1.567,0.018 -2.087,-0.006 l 1.268,2.808 c 0.016,0.018 0.052,0.032 0.069,0.04 0.166,-0.096 0.524,-0.307 0.524,-0.307 0,0 0.851,0.307 1.164,0.431 0.101,-0.208 0.252,-0.683 0.252,-1.804 0,-0.519 -0.037,-1.17 -0.117,-1.989 -0.103,-0.947 -0.465,-1.654 -1.073,-2.115 -1.246,-0.876 -3.115,-0.473 -3.135,-0.466 l -0.678,0.129 0.278,-0.619 c 0.556,-1.295 1.345,-2.062 2.293,-2.25 0.9,-0.176 1.734,0.174 2.315,0.541 -0.017,-0.188 -0.041,-0.371 -0.041,-0.546 0,-1.838 1.213,-3.23 1.279,-3.299 l 0.253,-0.291 0.252,0.287 c 0.076,0.07 1.316,1.474 1.316,3.324 0,0.162 -0.02,0.348 -0.051,0.525 0.586,-0.367 1.428,-0.717 2.322,-0.541 0.96,0.188 1.725,0.955 2.299,2.25 l 0.266,0.619 -0.668,-0.129 c -0.01,-0.007 -1.89,-0.41 -3.124,0.466 -0.619,0.461 -0.997,1.168 -1.085,2.115 -0.083,0.819 -0.122,1.47 -0.122,1.989 0,1.121 0.158,1.596 0.247,1.804 0.325,-0.124 1.177,-0.431 1.177,-0.431 0,0 0.2,0.121 0.367,0.223 l 1.338,-2.758 c -0.518,0.018 -1.182,0.032 -2.036,0 l 0.061,-1.537 c 1.22,0.048 2.522,-0.009 2.859,-0.122 0.04,-0.057 0.08,-0.115 0.131,-0.159 0.811,-0.465 2.04,-1.444 2.216,-2.09 l 1.487,0.407 c -0.169,0.599 -0.625,1.173 -1.13,1.663 0.856,-0.19 1.49,-0.56 1.507,-0.569 l 0.793,1.307 c -0.089,0.064 -1.945,1.162 -4.054,0.819 -0.305,0.629 -0.968,1.99 -1.552,3.197 0.073,0.178 0.095,0.375 0.095,0.579 v 0.108 c 0.053,0.009 0.436,0.063 0.436,0.063 v 4.59 c 0.168,-1.512 0.766,-5.326 2.96,-5.841 1.93,-0.471 3.157,0.089 3.546,1.585 l 0.096,0.385 -0.4,0.044 c -0.802,0.104 -2.49,0.559 -2.602,1.282 -0.148,1.087 -0.441,4.892 -0.509,5.578 0.029,0.035 0.068,0.061 0.1,0.125 0.545,-1.867 1.347,-2.989 2.421,-3.254 1.956,-0.459 3.182,0.087 3.567,1.601 l 0.096,0.375 -0.393,0.05 c -0.809,0.108 -2.496,0.547 -2.605,1.273 0,0 -0.26,2.703 -0.32,3.312 0.071,0.106 0.209,0.279 0.365,0.501 0.284,-0.237 0.572,-0.408 0.892,-0.49 1.954,-0.461 3.175,0.085 3.552,1.584 l 0.101,0.393 z"
             style="fill:#ffffff;fill-opacity:1;fill-rule:evenodd;stroke:none"
             id="path226" /></g><g
           id="g228"
           transform="translate(112.999,161.6895)"
           style="fill:#ffffff"><path
             d="m 0,0 c 0.499,0.846 0.965,1.926 0.967,2.267 0,1.146 -1.025,2.067 -2.289,2.067 -1.269,0 -2.301,-0.921 -2.301,-2.067 h -2.779 c 0,2.673 2.267,4.845 5.08,4.845 2.805,0 5.082,-2.172 5.082,-4.845 0,-1.305 -1.047,-3.166 -1.365,-3.702 z m 1.769,-11.052 1.147,1.576 5.542,-4.336 -2.288,5.878 -4.259,1.05 c 3.044,1.363 5.181,4.407 5.181,7.963 0,4.815 -3.907,8.717 -8.722,8.717 -4.805,0 -8.719,-3.902 -8.719,-8.717 0,-3.556 2.137,-6.6 5.183,-7.963 l -1.579,0.227 -0.519,-0.693 4.202,-3.307 1.336,1.553 1.165,-0.986 -0.717,-0.834 2.824,-0.715 -0.085,-2.222 c 0.871,-0.121 1.557,-0.859 1.557,-1.765 0,-0.969 -0.804,-1.785 -1.799,-1.785 -0.682,0 -1.277,0.411 -1.581,0.995 -0.896,-0.501 -2.57,-1.443 -2.57,-1.443 -0.009,0 -4.795,-3.374 -5.495,-3.872 l -0.19,-2.629 -1.09,-13.715 H 6.697 l 0.368,12.333 0.115,4.307 -3.5,4.04 z m -5.512,-5.515 c 0,0 2.667,1.511 3.006,1.703 0.145,0.253 0.556,0.984 0.679,1.209 0,0.174 0.009,0.445 0.026,0.831 -0.585,0.153 -1.279,0.319 -1.818,0.464 -0.437,-0.708 -1.998,-3.266 -1.998,-3.266 l -4.059,-0.853 -0.313,1.509 c 0,0 0.9,0.182 1.795,0.369 l -0.028,0.022 1.423,1.645 -3.986,3.281 -3.009,-3.972 3.394,-6.377 c 1.527,1.083 4.832,3.413 4.888,3.435 m -3.587,9.242 -6.131,4.943 -2.765,0.421 1.168,-2.658 5.989,-5.002 z m 8.813,-8.301 c 0,0.149 -0.118,0.261 -0.264,0.261 -0.132,0 -0.247,-0.112 -0.247,-0.261 0,-0.127 0.115,-0.24 0.247,-0.24 0.146,0 0.264,0.113 0.264,0.24 m 2.178,3.616 c 0.615,-2.021 1.327,-4.43 1.389,-4.629 0.154,-0.164 1.979,-2.28 2.981,-3.445 l 0.826,0.176 0.289,3.607 c -0.473,0.367 -3.538,2.764 -5.485,4.291"
             style="fill:#ffffff;fill-opacity:1;fill-rule:evenodd;stroke:none"
             id="path230" /></g><g
           id="g232"
           transform="translate(162.7461,155.0664)"
           style="fill:#ffffff"><path
             d="M 0,0 -0.128,0.8 C -0.649,1.711 -2.052,4.211 -3.014,5.962 V -1.96 l -1.907,-4.87 0.2,-4.474 3.089,-0.319 c 0.479,3.216 1.331,9.081 1.331,9.058 0,0 0.205,1.711 0.301,2.565 m 7.271,13.735 c 2.801,0 5.085,-2.172 5.085,-4.845 0,-1.305 -1.045,-3.166 -1.371,-3.702 L 8.589,6.623 c 0.509,0.846 0.974,1.926 0.974,2.267 0,1.146 -1.027,2.068 -2.292,2.068 -1.258,0 -2.293,-0.922 -2.293,-2.068 H 2.185 c 0,2.673 2.28,4.845 5.086,4.845 M 1.515,0.982 C 1.551,0.924 1.555,0.838 1.56,0.764 1.615,0.726 1.659,0.701 1.708,0.661 l 2.997,0.822 5.01,0.183 0.152,0.013 2.209,-0.886 c 2.096,1.584 3.458,4.079 3.458,6.909 0,4.815 -3.903,8.717 -8.713,8.717 -4.825,0 -8.72,-3.902 -8.72,-8.717 0,-0.233 0.027,-0.449 0.04,-0.677 z m 14.508,-3.701 1.499,-1.454 3.226,3.265 -1.494,1.459 -1.615,0.095 0.869,0.917 -1.174,1.159 -3.988,-4.329 -0.441,0.422 C 12.304,-0.952 9.852,0.028 9.603,0.13 9.307,0.118 5.098,-0.03 4.937,-0.038 4.802,-0.082 2.181,-0.8 1.431,-1.004 1.323,-1.854 1.229,-2.744 1.229,-2.762 l -1.622,-10.911 0.016,-2.645 0.161,-15.337 h 16.504 l -1.343,15.674 -0.285,3.947 -4.385,0.411 -3.077,1.142 0.048,-4.034 -5.582,-0.04 -0.049,5.567 4.069,0.048 -0.899,1.817 2.486,1.578 0.388,0.238 c 0,0 0.613,-0.317 1.351,-0.709 l 4.336,4.409 1.082,-1.084 -3.98,-4.049 c 0.462,-0.237 0.863,-0.437 1.031,-0.524 0.384,0.21 1.03,0.56 1.03,0.56 l 0.732,-1.35 -1.743,-0.949 c 0,0 -3.138,1.612 -3.77,1.933 -0.297,-0.194 -0.554,-0.359 -0.962,-0.611 0.255,-0.509 0.476,-0.944 0.608,-1.227 0.474,-0.172 3.091,-1.138 3.247,-1.189 0.115,-0.017 2.413,-0.24 4.233,-0.407 l 2.324,0.19 -1.707,6.642 -1.031,0.997 1.476,1.525 z M 3.15,-10.5 c 0.012,-0.774 0.033,-1.747 0.037,-2.512 0.761,0.009 1.735,0.018 2.512,0.031 -0.015,0.76 -0.024,1.734 -0.024,2.5 C 4.89,-10.489 3.929,-10.489 3.15,-10.5"
             style="fill:#ffffff;fill-opacity:1;fill-rule:evenodd;stroke:none"
             id="path234" /></g><g
           id="g236"
           transform="translate(145.0801,84.0166)"
           style="fill:#ffffff"><path
             d="M 0,0 C 0.896,-0.08 2.616,-0.252 3.534,-0.338 3.438,-1.242 3.27,-2.955 3.178,-3.869 2.283,-3.789 0.551,-3.615 -0.352,-3.527 -0.265,-2.625 -0.089,-0.898 0,0 m -8.896,0 c 0.094,-0.898 0.262,-2.625 0.338,-3.527 -0.899,-0.088 -2.621,-0.262 -3.525,-0.342 -0.087,0.914 -0.243,2.627 -0.344,3.527 0.912,0.09 2.627,0.262 3.531,0.342 m 12.005,12.049 -1.038,-0.031 0.814,0.98 -1.188,0.981 -6.146,-7.43 -6.146,7.43 -1.186,-0.981 0.817,-0.98 -1.181,0.031 -0.096,-0.082 -1.514,-1.235 2.93,-3.539 1.617,1.315 0.184,1.166 3.583,-4.32 -3.13,-3.78 -5.527,-0.541 0.631,-6.568 6.595,0.617 -0.539,5.508 2.964,3.57 2.96,-3.57 -0.535,-5.508 6.59,-0.617 L 5.202,1.033 -0.329,1.574 -3.455,5.35 0.128,9.68 0.316,8.508 1.92,7.193 4.861,10.732 3.25,12.049 Z m -8.296,2.699 v -1.07 H -6.253 V 12.15 h 1.066 v -1.064 h 1.531 v 1.064 h 1.062 v 1.528 h -1.062 v 1.07 z"
             style="fill:#ffffff;fill-opacity:1;fill-rule:evenodd;stroke:none"
             id="path238" /></g><g
           id="g240"
           transform="translate(109.0117,111.2568)"
           style="fill:#ffffff"><path
             d="m 0,0 h 2.267 v 3.76 h 7.905 V 9.957 H -6.333 V 3.76 L 0,3.76 Z m 60.965,0 h 2.272 v 3.76 h 1.394 4.943 V 9.957 H 53.062 V 3.76 h 7.903 z M 24.381,0 h 2.274 v 3.76 h 9.924 V 0 h 2.278 v 3.76 h 3.278 v 14.722 l 2.982,3.834 v 6.282 h -4.352 v -3.76 h -3.182 v 3.76 h -4.356 v -3.76 h -3.165 v 3.76 h -4.348 v -3.76 h -3.183 v 3.76 h -4.35 V 22.316 L 21.16,18.482 V 3.76 h 3.221 z M 11.107,-30.5 c -0.002,0.094 -0.004,0.184 -0.004,0.273 0,3.67 0.886,7.129 2.429,10.168 3.45,6.805 10.244,11.438 18.095,11.438 8.208,0 15.278,-5.102 18.561,-12.467 1.23,-2.779 1.948,-5.869 1.948,-9.139 0,-0.373 -0.009,-0.736 -0.029,-1.101 -6.164,-2.518 -12.785,-3.869 -19.387,-3.869 -7.692,0 -15.04,1.705 -21.613,4.697 M 66.015,0.971 V -2.793 H 58.18 v 3.764 h -4.341 v -3.764 h -7.856 v 3.764 h -4.348 v -3.764 h -7.84 V 0.971 H 29.443 V -2.793 H 21.594 V 0.971 H 17.245 V -2.793 H 9.406 V 0.971 H 5.063 V -2.793 H -2.792 V 0.971 H -8.535 V -3.65 h 2.202 v -13.776 c -6.53,7.66 -10.472,17.186 -10.472,27.383 V 75.045 H 82.246 V 9.957 c 0,-10.879 -4.48,-21.287 -12.672,-29.623 V -3.65 H 71.77 V 0.971 Z M 83.633,77.839 H -19.595 V 9.957 c 0,-25.99 23.954,-47.943 52.315,-47.943 13.191,0 26.437,5.099 36.373,14 10.276,9.209 15.943,21.273 15.943,33.943 v 67.882 z"
             style="fill:#ffffff;fill-opacity:1;fill-rule:evenodd;stroke:none"
             id="path242" /></g><g
           id="g244"
           transform="translate(-0.002,141.7256)"
           style="fill:#ffffff"><path
             d="m 0,0 c 0,-78.15 63.584,-141.729 141.733,-141.729 78.151,0 141.731,63.579 141.731,141.729 0,78.153 -63.58,141.737 -141.731,141.737 C 63.584,141.737 0,78.153 0,0 m 2.774,0 c 0,76.625 62.339,138.966 138.959,138.966 76.621,0 138.958,-62.341 138.958,-138.966 0,-76.623 -62.337,-138.963 -138.958,-138.963 C 65.113,-138.963 2.774,-76.623 2.774,0"
             style="fill:#ffffff;fill-opacity:1;fill-rule:evenodd;stroke:none"
             id="path246" /></g></g></g></g></svg>
